<?xml version="1.0" encoding="UTF-8" standalone="no"?>
<svg width="64px" height="54px" viewBox="0 0 64 54" version="1.1" xmlns="http://www.w3.org/2000/svg" xmlns:xlink="http://www.w3.org/1999/xlink" xmlns:sketch="http://www.bohemiancoding.com/sketch/ns">
    <!-- Generator: Sketch 3.0.3 (7891) - http://www.bohemiancoding.com/sketch -->
    <title>Birthday-cake</title>
    <desc>Created with Sketch.</desc>
    <defs></defs>
    <g id="Page-1" stroke="none" stroke-width="1" fill="none" fill-rule="evenodd" sketch:type="MSPage">
        <g id="Birthday-cake" sketch:type="MSLayerGroup" transform="translate(1.000000, 1.000000)" stroke="#6B6C6E" stroke-width="2">
            <path d="M60,28 L60,50 C60,51.1 59.1,52 58,52 L4,52 C2.9,52 2,51.1 2,50 L2,28" id="Shape" sketch:type="MSShapeGroup"></path>
            <path d="M47,29.8 C39,34.8 38.8,29.1 31,29.1 C23.2,29.1 21,34.8 14,29.8 C1.1,35 0,22 0,22 C0,20.9 0.4,18 2,18 C2,18 7,16 31.1,16 C55.2,16 60,18 60,18 C61.6,18 62,20.9 62,22 C62,22 61.1,34.9 47,29.8 L47,29.8 Z" id="Shape" sketch:type="MSShapeGroup"></path>
            <path d="M2.3,37 L59.9,36.945" id="Shape" sketch:type="MSShapeGroup"></path>
            <path d="M2.3,44 L59.9,43.945" id="Shape" sketch:type="MSShapeGroup"></path>
            <path d="M9,16.9 L9,10" id="Shape" sketch:type="MSShapeGroup"></path>
            <path d="M53,16.9 L53,10" id="Shape" sketch:type="MSShapeGroup"></path>
            <path d="M42,15.9 L42,10" id="Shape" sketch:type="MSShapeGroup"></path>
            <path d="M31,15.9 L31,10" id="Shape" sketch:type="MSShapeGroup"></path>
            <path d="M20,15.9 L20,10" id="Shape" sketch:type="MSShapeGroup"></path>
            <path d="M11.9,6.8 C11.9,8.5 10.6,9.8 8.9,9.8 C7.3,9.8 5.9,8.4 5.9,6.8 C5.9,5.1 7.2,0 8.9,0 C10.6,0 11.9,5.1 11.9,6.8 L11.9,6.8 Z" id="Shape" sketch:type="MSShapeGroup"></path>
            <path d="M23,7 C23,8.7 21.7,10.1 20,10.1 C18.3,10.1 17,8.7 17,7 C17,5.3 18.3,0 20,0 C21.7,0 23,5.3 23,7 L23,7 Z" id="Shape" sketch:type="MSShapeGroup"></path>
            <path d="M34,7 C34,8.7 32.7,10.1 31,10.1 C29.3,10.1 28,8.7 28,7 C28,5.3 29.3,0 31,0 C32.7,0 34,5.3 34,7 L34,7 Z" id="Shape" sketch:type="MSShapeGroup"></path>
            <path d="M44.9,7 C44.9,8.7 43.6,10.1 41.9,10.1 C40.3,10.1 38.9,8.7 38.9,7 C38.9,5.3 40.2,0 41.9,0 C43.6,0 44.9,5.3 44.9,7 L44.9,7 Z" id="Shape" sketch:type="MSShapeGroup"></path>
            <path d="M55.9,7 C55.9,8.7 54.6,10.1 52.9,10.1 C51.3,10.1 49.9,8.7 49.9,7 C49.9,5.3 51.2,0 52.9,0 C54.6,0 55.9,5.2 55.9,7 L55.9,7 Z" id="Shape" sketch:type="MSShapeGroup"></path>
        </g>
    </g>
</svg>